<svg width="12" height="12" viewBox="0 0 12 12" fill="none" xmlns="http://www.w3.org/2000/svg">
<path d="M6.00005 6.96255L1.18755 11.775C1.05005 11.9125 0.889632 11.9813 0.706299 11.9813C0.522965 11.9813 0.362549 11.9125 0.225049 11.775C0.0875487 11.6375 0.0187988 11.4771 0.0187988 11.2938C0.0187988 11.1105 0.0875487 10.95 0.225049 10.8125L5.03755 6.00005L0.225049 1.18755C0.0875487 1.05005 0.0187988 0.889632 0.0187988 0.706299C0.0187988 0.522965 0.0875487 0.362549 0.225049 0.225049C0.362549 0.0875487 0.522965 0.0187988 0.706299 0.0187988C0.889632 0.0187988 1.05005 0.0875487 1.18755 0.225049L6.00005 5.03755L10.8125 0.225049C10.95 0.0875487 11.1105 0.0187988 11.2938 0.0187988C11.4771 0.0187988 11.6375 0.0875487 11.775 0.225049C11.9125 0.362549 11.9813 0.522965 11.9813 0.706299C11.9813 0.889632 11.9125 1.05005 11.775 1.18755L6.96255 6.00005L11.775 10.8125C11.9125 10.95 11.9813 11.1105 11.9813 11.2938C11.9813 11.4771 11.9125 11.6375 11.775 11.775C11.6375 11.9125 11.4771 11.9813 11.2938 11.9813C11.1105 11.9813 10.95 11.9125 10.8125 11.775L6.00005 6.96255Z" fill="#01927B"/>
</svg>
