<svg width="14" height="16" viewBox="0 0 14 16" fill="none" xmlns="http://www.w3.org/2000/svg">
<path d="M2.43748 15.5C2.09026 15.5 1.79512 15.3785 1.55206 15.1354C1.30901 14.8924 1.18748 14.5972 1.18748 14.25V2.375H0.333313V1.125H4.24998V0.5H9.74998V1.125H13.6666V2.375H12.8125V14.25C12.8125 14.5833 12.6875 14.875 12.4375 15.125C12.1875 15.375 11.8958 15.5 11.5625 15.5H2.43748ZM11.5625 2.375H2.43748V14.25H11.5625V2.375ZM4.64581 12.4583H5.89581V4.14583H4.64581V12.4583ZM8.10415 12.4583H9.35415V4.14583H8.10415V12.4583ZM2.43748 2.375V14.25V2.375Z" fill="#092625"/>
</svg>
