<svg width="16" height="16" viewBox="0 0 16 16" fill="none" xmlns="http://www.w3.org/2000/svg">
<path d="M8 16C6.89333 16 5.85333 15.79 4.88 15.37C3.90667 14.95 3.06 14.38 2.34 13.66C1.62 12.94 1.05 12.0933 0.63 11.12C0.21 10.1467 0 9.10667 0 8C0 6.89333 0.21 5.85333 0.63 4.88C1.05 3.90667 1.62 3.06 2.34 2.34C3.06 1.62 3.90667 1.05 4.88 0.63C5.85333 0.21 6.89333 0 8 0C9.10667 0 10.1467 0.21 11.12 0.63C12.0933 1.05 12.94 1.62 13.66 2.34C14.38 3.06 14.95 3.90667 15.37 4.88C15.79 5.85333 16 6.89333 16 8C16 9.10667 15.79 10.1467 15.37 11.12C14.95 12.0933 14.38 12.94 13.66 13.66C12.94 14.38 12.0933 14.95 11.12 15.37C10.1467 15.79 9.10667 16 8 16ZM7.14 14.78V13.14C6.67333 13.14 6.28 12.9667 5.96 12.62C5.64 12.2733 5.48 11.8667 5.48 11.4V10.52L1.38 6.42C1.31333 6.68667 1.26667 6.95 1.24 7.21C1.21333 7.47 1.2 7.73333 1.2 8C1.2 9.73333 1.76333 11.2467 2.89 12.54C4.01667 13.8333 5.43333 14.58 7.14 14.78ZM13.02 12.62C13.6067 11.98 14.05 11.2633 14.35 10.47C14.65 9.67667 14.8 8.85333 14.8 8C14.8 6.58667 14.4133 5.30333 13.64 4.15C12.8667 2.99667 11.8333 2.15333 10.54 1.62V1.98C10.54 2.44667 10.38 2.85333 10.06 3.2C9.74 3.54667 9.34667 3.72 8.88 3.72H7.14V5.46C7.14 5.68667 7.05 5.87333 6.87 6.02C6.69 6.16667 6.48667 6.24 6.26 6.24H4.6V8H9.76C9.98667 8 10.1733 8.08667 10.32 8.26C10.4667 8.43333 10.54 8.63333 10.54 8.86V11.4H11.4C11.7867 11.4 12.1267 11.5133 12.42 11.74C12.7133 11.9667 12.9133 12.26 13.02 12.62Z" fill="#092625"/>
</svg>
