<svg width="18" height="18" viewBox="0 0 18 18" fill="none" xmlns="http://www.w3.org/2000/svg">
<path d="M6.14585 8.37499H14.375V7.12499H6.14585V8.37499ZM6.14585 10.25H10.8334V8.99999H6.14585V10.25ZM6.14585 6.49999H14.375V5.24999H6.14585V6.49999ZM4.41669 14.8333C4.08335 14.8333 3.79169 14.7083 3.54169 14.4583C3.29169 14.2083 3.16669 13.9167 3.16669 13.5833V1.91666C3.16669 1.58332 3.29169 1.29166 3.54169 1.04166C3.79169 0.791657 4.08335 0.666656 4.41669 0.666656H16.0834C16.4167 0.666656 16.7084 0.791657 16.9584 1.04166C17.2084 1.29166 17.3334 1.58332 17.3334 1.91666V13.5833C17.3334 13.9167 17.2084 14.2083 16.9584 14.4583C16.7084 14.7083 16.4167 14.8333 16.0834 14.8333H4.41669ZM4.41669 13.5833H16.0834V1.91666H4.41669V13.5833ZM4.41669 1.91666V13.5833V1.91666ZM1.91669 17.3333C1.58335 17.3333 1.29169 17.2083 1.04169 16.9583C0.791687 16.7083 0.666687 16.4167 0.666687 16.0833V3.16666H1.91669V16.0833H14.8334V17.3333H1.91669Z" fill="#092625"/>
</svg>
