<svg width="10" height="16" viewBox="0 0 10 16" fill="none" xmlns="http://www.w3.org/2000/svg">
<path d="M4.08332 13.5C4.08332 14.5083 3.25832 15.3333 2.24999 15.3333C1.24166 15.3333 0.416656 14.5083 0.416656 13.5C0.416656 12.4917 1.24166 11.6667 2.24999 11.6667C3.25832 11.6667 4.08332 12.4917 4.08332 13.5ZM2.24999 6.16666C1.24166 6.16666 0.416656 6.99166 0.416656 7.99999C0.416656 9.00832 1.24166 9.83332 2.24999 9.83332C3.25832 9.83332 4.08332 9.00832 4.08332 7.99999C4.08332 6.99166 3.25832 6.16666 2.24999 6.16666ZM2.24999 0.666656C1.24166 0.666656 0.416656 1.49166 0.416656 2.49999C0.416656 3.50832 1.24166 4.33332 2.24999 4.33332C3.25832 4.33332 4.08332 3.50832 4.08332 2.49999C4.08332 1.49166 3.25832 0.666656 2.24999 0.666656ZM7.74999 4.33332C8.75832 4.33332 9.58332 3.50832 9.58332 2.49999C9.58332 1.49166 8.75832 0.666656 7.74999 0.666656C6.74166 0.666656 5.91666 1.49166 5.91666 2.49999C5.91666 3.50832 6.74166 4.33332 7.74999 4.33332ZM7.74999 6.16666C6.74166 6.16666 5.91666 6.99166 5.91666 7.99999C5.91666 9.00832 6.74166 9.83332 7.74999 9.83332C8.75832 9.83332 9.58332 9.00832 9.58332 7.99999C9.58332 6.99166 8.75832 6.16666 7.74999 6.16666ZM7.74999 11.6667C6.74166 11.6667 5.91666 12.4917 5.91666 13.5C5.91666 14.5083 6.74166 15.3333 7.74999 15.3333C8.75832 15.3333 9.58332 14.5083 9.58332 13.5C9.58332 12.4917 8.75832 11.6667 7.74999 11.6667Z" fill="#CED4D3"/>
</svg>
